<svg width="122" height="46" viewBox="0 0 122 46" fill="none" xmlns="http://www.w3.org/2000/svg">
<path d="M11.224 45.832L0.408 45V44.36L1.048 44.232C2.712 43.848 3.544 42.7813 3.544 41.032V6.792C3.544 5.896 3.39467 5.21333 3.096 4.744C2.84 4.27466 2.28533 3.95466 1.432 3.784L0.536 3.528V2.888L11.928 0.135998L12.696 0.711998L12.44 9.736V16.2C13.848 15.2187 15.384 14.4933 17.048 14.024C18.712 13.512 20.3973 13.256 22.104 13.256C24.536 13.256 26.6907 13.832 28.568 14.984C30.4453 16.0933 31.9173 17.8427 32.984 20.232C34.0933 22.5787 34.648 25.608 34.648 29.32C34.648 33.032 34.0293 36.1253 32.792 38.6C31.5973 41.032 29.976 42.8667 27.928 44.104C25.9227 45.3413 23.704 45.96 21.272 45.96C19.6933 45.96 18.0933 45.7467 16.472 45.32C14.8933 44.8933 13.4853 44.296 12.248 43.528L11.224 45.832ZM18.072 43.784C19.4373 43.784 20.632 43.3573 21.656 42.504C22.68 41.6507 23.4907 40.2 24.088 38.152C24.6853 36.0613 24.984 33.2027 24.984 29.576C24.984 25.9493 24.7067 23.1547 24.152 21.192C23.5973 19.2293 22.808 17.864 21.784 17.096C20.8027 16.328 19.608 15.944 18.2 15.944C16.1947 15.944 14.3387 16.4987 12.632 17.608V42.184C13.4427 42.696 14.2747 43.1013 15.128 43.4C15.9813 43.656 16.9627 43.784 18.072 43.784ZM37.4675 45V44.36L38.3635 44.104C39.1742 43.8907 39.7288 43.528 40.0275 43.016C40.3688 42.504 40.5608 41.8213 40.6035 40.968V20.936C40.6035 19.9973 40.4542 19.3147 40.1555 18.888C39.8568 18.4187 39.2808 18.0987 38.4275 17.928L37.4675 17.672V17.032L48.4115 13.32L49.0515 13.96L49.5635 18.312C50.9715 16.904 52.5715 15.7093 54.3635 14.728C56.1982 13.7467 58.0968 13.256 60.0595 13.256C62.1075 13.256 63.7502 13.6827 64.9875 14.536C66.2248 15.3467 67.1635 16.6267 67.8035 18.376C69.4675 16.7973 71.2595 15.56 73.1795 14.664C75.1422 13.7253 77.0408 13.256 78.8755 13.256C81.9048 13.256 84.1235 13.9813 85.5315 15.432C86.9822 16.8827 87.7075 19.1653 87.7075 22.28V41.032C87.7075 42.696 88.4755 43.7413 90.0115 44.168L90.7155 44.36V45H75.9315V44.36L76.5715 44.168C77.3822 43.912 77.9368 43.528 78.2355 43.016C78.5768 42.504 78.7475 41.8213 78.7475 40.968V21.384C78.7475 19.592 78.4275 18.376 77.7875 17.736C77.1475 17.0533 76.1235 16.712 74.7155 16.712C73.6062 16.712 72.5182 16.968 71.4515 17.48C70.4275 17.9493 69.3395 18.6747 68.1875 19.656C68.4008 20.3387 68.5288 21.0853 68.5715 21.896C68.6568 22.7067 68.6995 23.56 68.6995 24.456V41.032C68.7422 42.696 69.5102 43.7413 71.0035 44.168L71.5795 44.36V45H56.7315V44.36L57.6275 44.104C58.4382 43.848 58.9928 43.4853 59.2915 43.016C59.6328 42.504 59.8035 41.8213 59.8035 40.968V21.448C59.8035 19.7413 59.4835 18.5253 58.8435 17.8C58.2462 17.0747 57.2008 16.712 55.7075 16.712C54.7262 16.712 53.7448 16.968 52.7635 17.48C51.7822 17.9493 50.7582 18.6533 49.6915 19.592V41.032C49.6915 42.696 50.4382 43.7413 51.9315 44.168L52.5075 44.36V45H37.4675ZM109.09 45.96C106.188 45.96 103.543 45.3413 101.154 44.104C98.8068 42.824 96.9295 40.9893 95.5215 38.6C94.1562 36.168 93.4735 33.2027 93.4735 29.704C93.4735 26.248 94.2202 23.304 95.7135 20.872C97.2495 18.3973 99.2762 16.52 101.794 15.24C104.354 13.9173 107.148 13.256 110.178 13.256C112.652 13.256 114.743 13.6613 116.45 14.472C118.156 15.2827 119.458 16.3493 120.354 17.672C121.25 18.952 121.698 20.296 121.698 21.704C121.698 22.8987 121.335 23.8373 120.61 24.52C119.884 25.16 118.946 25.48 117.794 25.48C116.556 25.48 115.554 25.032 114.786 24.136C114.018 23.24 113.57 22.0667 113.442 20.616C113.399 19.6773 113.42 18.888 113.506 18.248C113.591 17.5653 113.591 16.8827 113.506 16.2C113.335 15.4747 113.058 15.0053 112.674 14.792C112.332 14.536 111.842 14.408 111.202 14.408C108.599 14.408 106.572 15.5387 105.122 17.8C103.714 20.0613 103.01 23.6667 103.01 28.616C103.01 32.9253 103.799 36.232 105.378 38.536C106.999 40.7973 109.474 41.928 112.802 41.928C114.807 41.928 116.428 41.5653 117.666 40.84C118.903 40.1147 120.098 39.0267 121.25 37.576L121.89 38.088C120.823 40.6053 119.18 42.5467 116.962 43.912C114.743 45.2773 112.119 45.96 109.09 45.96Z" fill="white"/>
</svg>
