<svg width="244" height="60" viewBox="0 0 244 60" fill="none" xmlns="http://www.w3.org/2000/svg">
<path d="M16.152 45.96C13.2507 45.96 10.6053 45.3413 8.216 44.104C5.86933 42.824 3.992 40.9893 2.584 38.6C1.21867 36.168 0.536 33.2027 0.536 29.704C0.536 26.248 1.28267 23.304 2.776 20.872C4.312 18.3973 6.33867 16.52 8.856 15.24C11.416 13.9173 14.2107 13.256 17.24 13.256C19.7147 13.256 21.8053 13.6613 23.512 14.472C25.2187 15.2827 26.52 16.3493 27.416 17.672C28.312 18.952 28.76 20.296 28.76 21.704C28.76 22.8987 28.3973 23.8373 27.672 24.52C26.9467 25.16 26.008 25.48 24.856 25.48C23.6187 25.48 22.616 25.032 21.848 24.136C21.08 23.24 20.632 22.0667 20.504 20.616C20.4613 19.6773 20.4827 18.888 20.568 18.248C20.6533 17.5653 20.6533 16.8827 20.568 16.2C20.3973 15.4747 20.12 15.0053 19.736 14.792C19.3947 14.536 18.904 14.408 18.264 14.408C15.6613 14.408 13.6347 15.5387 12.184 17.8C10.776 20.0613 10.072 23.6667 10.072 28.616C10.072 32.9253 10.8613 36.232 12.44 38.536C14.0613 40.7973 16.536 41.928 19.864 41.928C21.8693 41.928 23.4907 41.5653 24.728 40.84C25.9653 40.1147 27.16 39.0267 28.312 37.576L28.952 38.088C27.8853 40.6053 26.2427 42.5467 24.024 43.912C21.8053 45.2773 19.1813 45.96 16.152 45.96ZM47.722 45.96C44.4793 45.96 41.6633 45.2987 39.274 43.976C36.8847 42.6107 35.0287 40.6907 33.706 38.216C32.426 35.7413 31.786 32.84 31.786 29.512C31.786 26.184 32.4687 23.304 33.834 20.872C35.242 18.44 37.1407 16.5627 39.53 15.24C41.962 13.9173 44.6927 13.256 47.722 13.256C50.7513 13.256 53.4607 13.9173 55.85 15.24C58.2393 16.52 60.1167 18.376 61.482 20.808C62.89 23.24 63.594 26.1413 63.594 29.512C63.594 32.8827 62.9327 35.8053 61.61 38.28C60.33 40.712 58.4953 42.6107 56.106 43.976C53.7593 45.2987 50.9647 45.96 47.722 45.96ZM47.722 44.68C49.2153 44.68 50.41 44.2533 51.306 43.4C52.202 42.5467 52.842 41.032 53.226 38.856C53.6527 36.68 53.866 33.608 53.866 29.64C53.866 25.6293 53.6527 22.536 53.226 20.36C52.842 18.184 52.202 16.6693 51.306 15.816C50.41 14.9627 49.2153 14.536 47.722 14.536C46.2287 14.536 45.0127 14.9627 44.074 15.816C43.178 16.6693 42.5167 18.184 42.09 20.36C41.706 22.536 41.514 25.6293 41.514 29.64C41.514 33.608 41.706 36.68 42.09 38.856C42.5167 41.032 43.178 42.5467 44.074 43.4C45.0127 44.2533 46.2287 44.68 47.722 44.68ZM80.357 33.928C77.413 33.928 74.917 33.4373 72.869 32.456V34.632C72.869 35.9547 73.5303 36.744 74.853 37L86.885 39.24C88.8903 39.624 90.7037 40.136 92.325 40.776C93.9463 41.3733 95.2477 42.248 96.229 43.4C97.2103 44.5093 97.701 46.0453 97.701 48.008C97.701 50.0987 97.0183 52.0187 95.653 53.768C94.2877 55.56 92.261 56.9893 89.573 58.056C86.9277 59.1653 83.621 59.72 79.653 59.72C76.2397 59.72 73.5303 59.3573 71.525 58.632C69.5197 57.9493 68.0903 57.0533 67.237 55.944C66.4263 54.8347 66.021 53.6613 66.021 52.424C66.021 50.888 66.533 49.3307 67.557 47.752C68.6237 46.216 69.925 44.9787 71.461 44.04C70.1383 43.528 69.1783 42.8667 68.581 42.056C67.9837 41.2453 67.685 40.3707 67.685 39.432C67.685 38.5787 67.8983 37.7893 68.325 37.064C68.7943 36.296 69.349 35.528 69.989 34.76L72.101 32.072C68.9863 30.28 67.429 27.464 67.429 23.624C67.429 20.552 68.517 18.056 70.693 16.136C72.9117 14.216 76.1543 13.256 80.421 13.256C82.597 13.256 84.4957 13.512 86.117 14.024C87.781 14.536 89.1463 15.2613 90.213 16.2C91.5783 15.9867 92.8583 15.6453 94.053 15.176C95.2903 14.664 96.3997 13.9813 97.381 13.128L98.277 13.768V17.032H91.045C92.581 18.7387 93.349 20.936 93.349 23.624C93.349 26.6107 92.2397 29.0853 90.021 31.048C87.845 32.968 84.6237 33.928 80.357 33.928ZM80.293 32.648C81.9997 32.648 83.237 31.944 84.005 30.536C84.8157 29.128 85.221 26.7813 85.221 23.496C85.221 20.2107 84.8157 17.9067 84.005 16.584C83.237 15.2187 82.0423 14.536 80.421 14.536C78.8423 14.536 77.6477 15.24 76.837 16.648C76.0263 18.0133 75.621 20.3387 75.621 23.624C75.621 26.9093 75.9837 29.2347 76.709 30.6C77.477 31.9653 78.6717 32.648 80.293 32.648ZM70.757 50.376C70.757 52.8933 71.525 54.792 73.061 56.072C74.6397 57.352 77.1143 57.992 80.485 57.992C84.0263 57.992 86.693 57.416 88.485 56.264C90.277 55.112 91.173 53.4907 91.173 51.4C91.173 50.2053 90.725 49.2453 89.829 48.52C88.9757 47.7947 87.5037 47.24 85.413 46.856L73.829 44.68C73.4877 44.5947 73.1463 44.5093 72.805 44.424C72.2077 45.2773 71.717 46.2373 71.333 47.304C70.949 48.4133 70.757 49.4373 70.757 50.376ZM100.405 45V44.36L101.301 44.104C102.794 43.6773 103.541 42.632 103.541 40.968V20.936C103.541 19.9973 103.392 19.3147 103.093 18.888C102.794 18.4187 102.218 18.0987 101.365 17.928L100.405 17.672V17.032L111.349 13.32L111.989 13.96L112.501 17.8C113.994 16.4773 115.68 15.3893 117.557 14.536C119.434 13.6827 121.29 13.256 123.125 13.256C125.941 13.256 128.096 14.024 129.589 15.56C131.125 17.096 131.893 19.4427 131.893 22.6V41.032C131.893 42.696 132.704 43.7413 134.325 44.168L134.901 44.36V45H119.797V44.36L120.629 44.104C122.122 43.6347 122.869 42.5893 122.869 40.968V20.552C122.869 17.8213 121.504 16.456 118.773 16.456C116.896 16.456 114.848 17.3947 112.629 19.272V41.032C112.629 42.696 113.376 43.7413 114.869 44.168L115.445 44.36V45H100.405ZM145.085 9.928C143.634 9.928 142.397 9.48 141.373 8.584C140.392 7.64533 139.901 6.472 139.901 5.064C139.901 3.61333 140.392 2.44 141.373 1.544C142.397 0.647998 143.634 0.199997 145.085 0.199997C146.536 0.199997 147.752 0.647998 148.733 1.544C149.714 2.44 150.205 3.61333 150.205 5.064C150.205 6.472 149.714 7.64533 148.733 8.584C147.752 9.48 146.536 9.928 145.085 9.928ZM137.533 45V44.36L138.429 44.104C139.282 43.848 139.858 43.464 140.157 42.952C140.498 42.44 140.669 41.7573 140.669 40.904V20.872C140.669 19.976 140.498 19.3147 140.157 18.888C139.858 18.4187 139.282 18.0987 138.429 17.928L137.533 17.736V17.096L149.245 13.32L149.885 13.96L149.693 23.048V40.968C149.693 41.8213 149.842 42.504 150.141 43.016C150.482 43.528 151.058 43.912 151.869 44.168L152.509 44.36V45H137.533ZM167.503 45.96C164.772 45.96 162.639 45.2773 161.103 43.912C159.609 42.5467 158.863 40.3707 158.863 37.384V15.496H154.447V14.856L155.983 14.6C157.305 14.3013 158.436 13.8747 159.375 13.32C160.356 12.7653 161.316 12.0187 162.255 11.08L167.503 5.256H168.143L167.951 14.216H175.119V15.496H167.887V38.536C167.887 40.0293 168.207 41.16 168.847 41.928C169.529 42.696 170.383 43.08 171.407 43.08C172.303 43.08 173.092 42.8667 173.775 42.44C174.457 41.9707 175.14 41.352 175.823 40.584L176.463 41.224C175.609 42.6747 174.436 43.8267 172.943 44.68C171.449 45.5333 169.636 45.96 167.503 45.96ZM186.148 9.928C184.697 9.928 183.46 9.48 182.436 8.584C181.454 7.64533 180.964 6.472 180.964 5.064C180.964 3.61333 181.454 2.44 182.436 1.544C183.46 0.647998 184.697 0.199997 186.148 0.199997C187.598 0.199997 188.814 0.647998 189.796 1.544C190.777 2.44 191.268 3.61333 191.268 5.064C191.268 6.472 190.777 7.64533 189.796 8.584C188.814 9.48 187.598 9.928 186.148 9.928ZM178.596 45V44.36L179.492 44.104C180.345 43.848 180.921 43.464 181.22 42.952C181.561 42.44 181.732 41.7573 181.732 40.904V20.872C181.732 19.976 181.561 19.3147 181.22 18.888C180.921 18.4187 180.345 18.0987 179.492 17.928L178.596 17.736V17.096L190.308 13.32L190.948 13.96L190.756 23.048V40.968C190.756 41.8213 190.905 42.504 191.204 43.016C191.545 43.528 192.121 43.912 192.932 44.168L193.572 44.36V45H178.596ZM212.597 45.96C209.354 45.96 206.538 45.2987 204.149 43.976C201.76 42.6107 199.904 40.6907 198.581 38.216C197.301 35.7413 196.661 32.84 196.661 29.512C196.661 26.184 197.344 23.304 198.709 20.872C200.117 18.44 202.016 16.5627 204.405 15.24C206.837 13.9173 209.568 13.256 212.597 13.256C215.626 13.256 218.336 13.9173 220.725 15.24C223.114 16.52 224.992 18.376 226.357 20.808C227.765 23.24 228.469 26.1413 228.469 29.512C228.469 32.8827 227.808 35.8053 226.485 38.28C225.205 40.712 223.37 42.6107 220.981 43.976C218.634 45.2987 215.84 45.96 212.597 45.96ZM212.597 44.68C214.09 44.68 215.285 44.2533 216.181 43.4C217.077 42.5467 217.717 41.032 218.101 38.856C218.528 36.68 218.741 33.608 218.741 29.64C218.741 25.6293 218.528 22.536 218.101 20.36C217.717 18.184 217.077 16.6693 216.181 15.816C215.285 14.9627 214.09 14.536 212.597 14.536C211.104 14.536 209.888 14.9627 208.949 15.816C208.053 16.6693 207.392 18.184 206.965 20.36C206.581 22.536 206.389 25.6293 206.389 29.64C206.389 33.608 206.581 36.68 206.965 38.856C207.392 41.032 208.053 42.5467 208.949 43.4C209.888 44.2533 211.104 44.68 212.597 44.68ZM238.35 45.96C236.814 45.96 235.513 45.4267 234.446 44.36C233.379 43.2933 232.846 42.0133 232.846 40.52C232.846 39.0267 233.379 37.7253 234.446 36.616C235.513 35.5067 236.814 34.952 238.35 34.952C239.886 34.952 241.187 35.5067 242.254 36.616C243.321 37.7253 243.854 39.0267 243.854 40.52C243.854 42.0133 243.321 43.2933 242.254 44.36C241.187 45.4267 239.886 45.96 238.35 45.96Z" fill="white"/>
</svg>
